<?xml version="1.0" standalone="no"?><!DOCTYPE svg PUBLIC "-//W3C//DTD SVG 1.1//EN" "http://www.w3.org/Graphics/SVG/1.1/DTD/svg11.dtd"><svg t="1492419036295" class="icon" style="" viewBox="0 0 1024 1024" version="1.1" xmlns="http://www.w3.org/2000/svg" p-id="1005" xmlns:xlink="http://www.w3.org/1999/xlink" width="200" height="200"><defs><style type="text/css"></style></defs><path d="M512 912c-53.99 0-106.376-10.578-155.703-31.442-47.633-20.148-90.409-48.986-127.139-85.716s-65.569-79.506-85.716-127.14C122.579 618.377 112 565.99 112 512s10.579-106.376 31.442-155.703c20.147-47.633 48.987-90.409 85.716-127.139s79.505-65.569 127.139-85.716C405.624 122.579 458.01 112 512 112s106.377 10.579 155.702 31.442c47.634 20.147 90.41 48.987 127.14 85.716s65.567 79.505 85.716 127.139C901.422 405.624 912 458.01 912 512s-10.578 106.377-31.442 155.702c-20.148 47.634-48.986 90.41-85.716 127.14s-79.506 65.567-127.14 85.716C618.377 901.422 565.99 912 512 912zM512 150.095c-48.864 0-96.257 9.566-140.862 28.433-43.093 18.227-81.799 44.325-115.042 77.568-33.243 33.243-59.341 71.949-77.568 115.042-18.867 44.605-28.433 91.998-28.433 140.862s9.566 96.258 28.433 140.862c18.227 43.093 44.325 81.799 77.568 115.042 33.243 33.243 71.949 59.34 115.042 77.567 44.605 18.866 91.998 28.433 140.862 28.433s96.258-9.566 140.862-28.433c43.093-18.228 81.799-44.324 115.042-77.567s59.34-71.949 77.567-115.042c18.866-44.604 28.433-91.998 28.433-140.862s-9.566-96.257-28.433-140.862c-18.228-43.093-44.324-81.799-77.567-115.042-33.243-33.243-71.949-59.341-115.042-77.568C608.258 159.661 560.864 150.095 512 150.095z" p-id="1006" fill="#666"></path><path d="M647.587166 349.436982l26.936974 26.936974-298.176292 298.176292-26.936974-26.936974 298.176292-298.176292Z" p-id="1007" fill="#666"></path><path d="M376.373727 349.45213l298.170635 298.170635-26.936974 26.936974-298.170635-298.170635 26.936974-26.936974Z" p-id="1008" fill="#666"></path></svg>